<svg xmlns="http://www.w3.org/2000/svg" viewBox="0 0 512 512"><defs><style>.cls-1{fill:#fc4581;}.cls-2{fill:#f6c752;}.cls-3{fill:#e0b24c;}.cls-4{fill:#32314b;}.cls-5{fill:#27273d;}.cls-6{fill:#f9de98;}.cls-7{fill:#f6d372;}.cls-8{fill:#7cc8fb;}</style></defs><title>Cinema</title><g id="BULINE"><circle class="cls-1" cx="256" cy="256" r="256"/></g><g id="Icons"><path class="cls-2" d="M500.44,292.16c1.42-14-5.76-27.88-19.25-40.19l22.53-111.26A17.64,17.64,0,0,0,485,119.65,593.64,593.64,0,0,1,274.77,98.31a17.63,17.63,0,0,0-22.55,16.87l-.29,113.52C236.25,238,226.42,250.19,225,264.19c-2.19,21.66,15.4,51,45.18,73.57l.78,27.29a56.24,56.24,0,0,0,50.53,54.34l53.25,5.41a56.24,56.24,0,0,0,60.43-43.08l6.24-26.58C475.11,339.05,498.24,313.81,500.44,292.16Z"/><path class="cls-3" d="M340.1,421.29l-18.62-1.89A56.23,56.23,0,0,1,271,365.05l-.79-27.29c-29.77-22.54-47.36-51.91-45.16-73.57,1.42-14,11.25-26.14,26.93-35.49l.29-113.52a17.63,17.63,0,0,1,22.55-16.87c2.61.74,5.24,1.48,7.85,2.18a17.55,17.55,0,0,0-11.79,16.58l-.29,113.52c-15.68,9.35-25.51,21.49-26.93,35.49-1.94,19.12,11.54,44.26,35.23,65.4a30.74,30.74,0,0,1,10.34,22.06l.39,13.4A56.23,56.23,0,0,0,340.1,421.29Z"/><path class="cls-4" d="M303.69,293.62q55.89,28.5,116.38,11.82a9,9,0,0,1,11.32,9.64l-.12,1.21a47.63,47.63,0,0,1-52.2,42.58l-46-4.66A47.64,47.64,0,0,1,290.53,302l.12-1.2A9,9,0,0,1,303.69,293.62Z"/><path class="cls-5" d="M351.3,356.05l-18.61-1.89A47.63,47.63,0,0,1,290.11,302l.12-1.21a9,9,0,0,1,13-7.17c2.65,1.34,5.3,2.62,8,3.81a9,9,0,0,0-2.39,5.25l-.12,1.21A47.63,47.63,0,0,0,351.3,356.05Z"/><path class="cls-4" d="M350.75,241.22c5.39,3.15,12.08-1.52,10.75-7.62a47.45,47.45,0,0,0-90-9.13c-2.53,5.7,3.09,11.62,9,9.62Q317.25,221.67,350.75,241.22Z"/><path class="cls-4" d="M386.77,244.88c-5.91,2-11.54-3.92-9-9.63a47.45,47.45,0,0,1,90,9.14c1.34,6.1-5.36,10.77-10.75,7.62Q423.52,232.45,386.77,244.88Z"/><path class="cls-4" d="M363.9,279.59a21.69,21.69,0,0,1-10-3.6c-12.42-8.31-17-9.05-17-9.06a.87.87,0,0,0,.24,0l.33-8.53c1.39.05,7,1,21.22,10.47a13.36,13.36,0,0,0,12.51,1.28c15.82-6.47,21.52-6.23,22.89-6l-1.4,8.43a.79.79,0,0,0,.25,0c-.05,0-4.68-.2-18.51,5.45A21.78,21.78,0,0,1,363.9,279.59Z"/><path class="cls-3" d="M424.75,277.28c13.75,6.34,33.7,21.64,26.77,55.88a3.36,3.36,0,0,1-6.55.19c-3.19-12.74-10-32.52-24.28-51A3.35,3.35,0,0,1,424.75,277.28Z"/><path class="cls-3" d="M304.6,265.08c-14.75,3.45-37.37,14.43-37.46,49.36a3.36,3.36,0,0,0,6.38,1.5c5.68-11.83,16.37-29.83,34-45.05A3.36,3.36,0,0,0,304.6,265.08Z"/><path class="cls-4" d="M268.63,181.7a4.2,4.2,0,0,1-2-.77,4.26,4.26,0,0,1-1-6c.27-.39,6.86-9.51,20.57-14.76,12.37-4.74,33.23-7.16,62.31,8.23a4.27,4.27,0,1,1-4,7.55c-49.66-26.28-71.7,3.62-71.92,3.93A4.29,4.29,0,0,1,268.63,181.7Z"/><path class="cls-4" d="M476.9,202.84a4.24,4.24,0,0,1-3.47-2.51c-.65-1.42-16.12-34-69.68-18.31a4.27,4.27,0,1,1-2.39-8.2c31.58-9.23,51.52-2.67,62.69,4.46,12.37,7.9,17,18.16,17.19,18.59a4.27,4.27,0,0,1-2.19,5.63A4.15,4.15,0,0,1,476.9,202.84Z"/><circle class="cls-6" cx="480.95" cy="162.97" r="11.19"/><circle class="cls-6" cx="483.3" cy="139.77" r="7.93"/><path class="cls-5" d="M287,226a6.88,6.88,0,0,0,.16,6c-2.22.59-4.46,1.25-6.69,2-5.91,2-11.54-3.92-9-9.63a47.79,47.79,0,0,1,48.34-28.36,46.45,46.45,0,0,1,7.71,1.44A48,48,0,0,0,287,226Z"/><path class="cls-5" d="M393.31,236.83a6.85,6.85,0,0,0,.16,6c-2.22.58-4.46,1.25-6.7,2-5.9,2-11.53-3.92-9-9.63a47.46,47.46,0,0,1,56-26.93A48,48,0,0,0,393.31,236.83Z"/><path class="cls-7" d="M290.68,254.76c-1.47-14.25-11.5-26.6-27.48-36.1l-.46-115.57a18,18,0,0,0-23-17.15,604.45,604.45,0,0,1-214,22,18,18,0,0,0-19,21.47L29.82,242.7c-13.72,12.55-21,26.69-19.55,40.94,2.27,22.05,25.86,47.71,60.21,64.05l6.4,27.05a57.27,57.27,0,0,0,61.58,43.77l54.21-5.59A57.25,57.25,0,0,0,244,357.52l.75-27.79C275.09,306.74,293,276.81,290.68,254.76Z"/><path class="cls-2" d="M157.41,416.56l-18.95,1.95a57.25,57.25,0,0,1-61.58-43.77l-6.41-27.05c-34.33-16.34-57.93-42-60.2-64.05-1.46-14.25,5.84-28.38,19.55-40.94L6.71,129.46a18,18,0,0,1,19-21.47c2.76.2,5.53.39,8.28.56a17.87,17.87,0,0,0-8.34,19l23.1,113.24c-13.71,12.56-21,26.69-19.54,40.94,1.9,18.39,18.62,39.29,44.05,55.21a47.66,47.66,0,0,1,21,29.46l1.52,6.43A57.26,57.26,0,0,0,157.41,416.56Z"/><path class="cls-4" d="M217.85,342.12q-61.6-16.89-118.47,12.2A9.18,9.18,0,0,1,86.1,347L86,345.81a48.5,48.5,0,0,1,43.28-53.21L176,287.78a48.49,48.49,0,0,1,53.21,43.27l.13,1.23A9.19,9.19,0,0,1,217.85,342.12Z"/><path class="cls-5" d="M105.62,343.5l.12,1.22A9.11,9.11,0,0,0,108,349.9c-2.9,1.29-5.78,2.67-8.67,4.14a9.18,9.18,0,0,1-13.28-7.29l-.12-1.22a48.49,48.49,0,0,1,43.27-53.21l19.68-2A48.49,48.49,0,0,0,105.62,343.5Z"/><path class="cls-4" d="M131,234.82c6,2,11.74-4,9.15-9.81a48.31,48.31,0,0,0-91.62,9.44c-1.35,6.21,5.48,11,11,7.74Q93.53,222.23,131,234.82Z"/><path class="cls-5" d="M64.31,232.82a7,7,0,0,0,1.4,6q-3.13,1.56-6.26,3.38c-5.47,3.22-12.31-1.53-11-7.74a48.61,48.61,0,0,1,42.35-38.23,47.47,47.47,0,0,1,8-.16A48.81,48.81,0,0,0,64.31,232.82Z"/><path class="cls-4" d="M40.64,212.82a4.15,4.15,0,0,1-1.4-.08,4.36,4.36,0,0,1-3.29-5.2c.34-1.47,8.87-35.95,74.32-34.56a11.26,11.26,0,0,0,8.58-3.36c1.81-1.94,3-4.31-.24-8.52a4.35,4.35,0,1,1,6.86-5.34c5.26,6.75,5.17,14-.25,19.79a20,20,0,0,1-15.14,6.13c-58.4-1.25-65.58,27.49-65.64,27.78A4.34,4.34,0,0,1,40.64,212.82Z"/><path class="cls-4" d="M167.63,231c-5.48,3.22-12.31-1.53-11-7.74a48.31,48.31,0,0,1,91.62-9.43c2.58,5.8-3.13,11.84-9.16,9.81Q201.71,211.08,167.63,231Z"/><path class="cls-4" d="M251.57,191.1a4.36,4.36,0,0,1-4.39-2.49c-.57-1.19-13.7-26.82-69.94-13.85a20,20,0,0,1-16.08-2.91c-6.48-4.6-8-11.64-4.27-19.33a4.35,4.35,0,0,1,7.81,3.83c-2.35,4.79-.67,6.87,1.49,8.4a11.35,11.35,0,0,0,9.09,1.54c63.78-14.71,79.17,17.31,79.8,18.68a4.35,4.35,0,0,1-2.16,5.76A4.46,4.46,0,0,1,251.57,191.1Z"/><path class="cls-4" d="M150.61,270.51a22.33,22.33,0,0,1-10.7-1.53c-14.09-5.73-18.81-5.52-18.85-5.52a1.53,1.53,0,0,0,.25,0l-1.44-8.58c1.4-.23,7.19-.49,23.32,6.07a13.58,13.58,0,0,0,12.73-1.31c14.45-9.71,20.18-10.63,21.59-10.7l.34,8.69a1,1,0,0,0,.26,0c-.05,0-4.71.77-17.34,9.25A22.22,22.22,0,0,1,150.61,270.51Z"/><path class="cls-2" d="M92.78,263.5c-14,6.47-34.28,22.08-27.18,56.93a3.42,3.42,0,0,0,6.67.19c3.23-13,10.18-33.13,24.65-51.94A3.41,3.41,0,0,0,92.78,263.5Z"/><path class="cls-2" d="M202.77,252.17c15,3.48,38.07,14.63,38.21,50.2a3.42,3.42,0,0,1-6.49,1.54c-5.81-12.05-16.72-30.36-34.71-45.83A3.41,3.41,0,0,1,202.77,252.17Z"/><path class="cls-8" d="M35.89,280.59a10.31,10.31,0,0,0,19.68,6.16c1.7-5.43,2-21.83-3.44-23.53S37.59,275.16,35.89,280.59Z"/><circle class="cls-6" cx="235.16" cy="130.94" r="11.39"/><circle class="cls-6" cx="232.73" cy="107.33" r="8.07"/><path class="cls-5" d="M172.49,221.67a7,7,0,0,0,1.4,6q-3.13,1.56-6.26,3.38c-5.47,3.21-12.31-1.53-11-7.74A48.63,48.63,0,0,1,199,185.06a49.68,49.68,0,0,1,8-.16A48.84,48.84,0,0,0,172.49,221.67Z"/></g></svg>